<?xml version="1.0" encoding="UTF-8"?>
<!DOCTYPE svg PUBLIC "-//W3C//DTD SVG 1.1//EN" "http://www.w3.org/Graphics/SVG/1.1/DTD/svg11.dtd">
<svg xmlns="http://www.w3.org/2000/svg" version="1.1" width="49px" height="48px" style="shape-rendering:geometricPrecision; text-rendering:geometricPrecision; image-rendering:optimizeQuality; fill-rule:evenodd; clip-rule:evenodd" xmlns:xlink="http://www.w3.org/1999/xlink">
<g><path style="opacity:1" fill="#838ee9" d="M 15.5,-0.5 C 21.8333,-0.5 28.1667,-0.5 34.5,-0.5C 25.0962,4.65769 21.4295,12.6577 23.5,23.5C 26.1231,34.2281 22.7898,42.2281 13.5,47.5C 8.83333,47.5 4.16667,47.5 -0.5,47.5C -0.5,36.8333 -0.5,26.1667 -0.5,15.5C 2.5,7.83333 7.83333,2.5 15.5,-0.5 Z"/></g>
<g><path style="opacity:1" fill="#5e68cf" d="M 34.5,-0.5 C 38.8333,-0.5 43.1667,-0.5 47.5,-0.5C 49.8333,17.8333 41.8333,25.8333 23.5,23.5C 21.4295,12.6577 25.0962,4.65769 34.5,-0.5 Z"/></g>
</svg>
