<svg width="324" height="324" viewBox="0 0 324 324" fill="none" xmlns="http://www.w3.org/2000/svg">
<circle cx="162" cy="162" r="162" fill="url(#paint0_linear_10_186)"/>
<path d="M246.114 188.001L197.122 161.5L246.114 134.999C248.875 133.506 249.819 130.201 248.226 127.613L236.685 108.884C235.092 106.299 231.564 105.41 228.803 106.904L179.811 133.404V80.4062C179.811 77.4193 177.227 75 174.041 75H150.959C147.773 75 145.189 77.4193 145.189 80.4062V133.408L96.1971 106.907C93.4363 105.414 89.9078 106.302 88.3147 108.887L76.7741 127.613C75.181 130.198 76.1253 133.506 78.8861 134.999L127.878 161.5L78.8861 188.001C76.1253 189.494 75.181 192.802 76.7741 195.387L88.3147 214.116C89.9078 216.701 93.4363 217.586 96.1971 216.096L145.189 189.596V242.594C145.189 245.581 147.773 248 150.959 248H174.041C177.227 248 179.811 245.581 179.811 242.594V189.592L228.803 216.093C231.564 217.586 235.092 216.701 236.685 214.113L248.226 195.384C249.819 192.799 248.875 189.494 246.114 188.001V188.001Z" fill="white"/>
<defs>
<linearGradient id="paint0_linear_10_186" x1="2.95484e-06" y1="14.5" x2="341.5" y2="324" gradientUnits="userSpaceOnUse">
<stop stop-color="#3198FE"/>
<stop offset="1" stop-color="#3788FF"/>
</linearGradient>
</defs>
</svg>
